<?xml version="1.0" standalone="no"?>
<!DOCTYPE svg PUBLIC "-//W3C//DTD SVG 20010904//EN"
 "http://www.w3.org/TR/2001/REC-SVG-20010904/DTD/svg10.dtd">
<svg version="1.0" xmlns="http://www.w3.org/2000/svg"
 width="600.000000pt" height="600.000000pt" viewBox="0 0 600.000000 600.000000"
 preserveAspectRatio="xMidYMid meet">
<metadata>
Created by potrace 1.14, written by Peter Selinger 2001-2017
</metadata>
<g transform="translate(0.000000,600.000000) scale(0.100000,-0.100000)"
fill="#000000" stroke="none">
<path d="M5266 4414 c-23 -22 -21 -87 3 -108 26 -24 62 -17 80 15 35 63 -35
141 -83 93z"/>
<path d="M5435 4395 c-27 -26 -34 -82 -13 -103 19 -19 55 -14 78 10 36 39 19
118 -26 118 -8 0 -26 -11 -39 -25z"/>
<path d="M5552 4305 c-51 -22 -58 -92 -10 -109 32 -11 73 11 90 50 22 48 -24
82 -80 59z"/>
<path d="M1645 4236 c-77 -20 -128 -51 -158 -97 -24 -36 -24 -68 -2 -133 23
-68 28 -63 -98 -105 -79 -27 -187 -91 -187 -111 0 -14 128 -91 175 -106 26 -7
72 -13 102 -11 54 2 56 1 97 -44 23 -25 57 -75 75 -110 117 -222 178 -268 290
-223 64 25 77 81 61 255 -6 68 -12 128 -13 133 -5 24 190 47 222 27 12 -8 12
-22 3 -93 -7 -45 -12 -126 -12 -178 0 -145 25 -210 78 -210 39 0 204 174 263
275 53 92 89 175 89 204 0 24 30 34 165 57 55 9 112 23 127 30 31 16 44 63 34
119 -9 44 -64 87 -141 109 -63 19 -70 27 -79 90 -8 67 -28 93 -78 107 -67 19
-217 17 -254 -3 -40 -22 -84 -74 -84 -99 0 -29 -26 -74 -55 -97 -23 -18 -41
-20 -170 -20 l-145 -1 0 40 c0 50 -19 87 -65 127 -76 67 -154 89 -240 68z"/>
<path d="M4477 4243 c-4 -3 -8 -133 -8 -287 -1 -155 -4 -328 -8 -386 l-6 -105
-75 -2 c-97 -3 -356 -23 -392 -30 -57 -11 -44 -59 31 -114 40 -30 43 -30 188
-35 198 -6 262 -13 240 -25 -9 -6 -53 -14 -97 -19 -98 -11 -123 -24 -152 -77
-13 -24 -90 -122 -173 -220 -193 -227 -255 -305 -255 -319 0 -6 23 -14 50 -17
47 -6 58 -2 156 48 153 79 245 146 362 262 56 57 105 97 107 90 2 -6 8 -98 13
-202 10 -189 23 -257 55 -277 29 -18 201 6 234 33 23 20 34 87 42 252 4 89 12
170 18 181 9 15 18 6 69 -71 65 -98 195 -239 264 -286 33 -23 56 -31 90 -32
l45 0 -1 62 c-1 69 -37 151 -136 314 -29 48 -65 110 -80 137 -43 80 -139 124
-214 98 -24 -7 -54 15 -54 39 0 29 31 45 89 45 87 0 321 20 363 31 20 5 50 22
67 38 28 26 30 32 20 55 -7 14 -28 33 -47 42 -32 15 -61 16 -258 10 l-222 -7
-4 30 c-6 42 7 51 72 51 51 0 59 3 91 36 18 19 86 74 151 122 71 52 122 98
131 116 8 17 38 60 67 96 63 79 80 110 80 149 0 49 -38 71 -126 71 -101 0
-145 -19 -182 -78 -43 -70 -202 -359 -235 -426 -16 -32 -32 -55 -36 -50 -5 5
-4 92 1 194 5 102 8 229 6 282 -3 94 -4 99 -34 129 -22 21 -50 35 -90 45 -61
14 -206 19 -217 7z"/>
<path d="M330 4214 c-8 -1 -48 -8 -88 -14 -47 -8 -75 -17 -79 -27 -3 -8 31
-69 81 -144 48 -71 110 -177 137 -234 l50 -105 -172 -227 c-95 -126 -188 -245
-206 -266 -18 -20 -33 -45 -33 -55 0 -22 39 -42 78 -42 15 0 117 42 227 94
110 52 203 91 207 87 10 -9 28 -127 28 -184 0 -45 -4 -53 -61 -117 -33 -38
-144 -147 -246 -242 -166 -155 -253 -247 -253 -268 0 -4 18 -12 41 -18 37 -9
54 -5 205 48 91 32 171 63 178 70 14 11 134 60 148 60 19 0 2 -552 -21 -660
-6 -27 -12 -34 -27 -33 -93 11 -324 14 -324 6 0 -6 51 -58 114 -116 114 -104
224 -173 330 -207 62 -20 160 -15 213 11 39 19 50 31 74 85 140 309 170 1107
59 1615 -11 53 -38 149 -59 212 l-39 116 99 107 c189 203 271 337 227 371 -41
31 -117 47 -228 48 -132 0 -168 -11 -193 -58 -10 -18 -31 -48 -48 -67 l-29
-35 -23 29 c-57 73 -105 116 -130 116 -14 0 -49 11 -79 25 -48 23 -109 30
-158 19z"/>
<path d="M5552 4154 c-24 -17 -30 -62 -10 -82 7 -7 29 -12 49 -12 29 0 43 6
58 26 26 33 26 39 1 64 -24 24 -67 26 -98 4z"/>
<path d="M3956 4143 c-27 -4 -28 -7 -22 -41 16 -99 84 -270 147 -370 121 -195
144 -208 219 -126 41 45 42 48 37 99 -3 29 -17 81 -32 116 -14 35 -34 101 -45
147 -10 45 -25 93 -33 106 -34 52 -170 86 -271 69z"/>
<path d="M3444 3786 c-32 -32 -34 -38 -34 -104 0 -83 25 -128 81 -150 31 -12
41 -11 72 2 69 28 95 113 61 194 -40 97 -116 122 -180 58z m127 -70 c37 -61
12 -126 -50 -126 -39 0 -61 32 -61 86 0 33 5 47 25 62 32 26 62 18 86 -22z"/>
<path d="M3482 3728 c-18 -18 -15 -94 4 -112 34 -35 94 -9 94 40 0 45 -27 84
-58 84 -16 0 -33 -5 -40 -12z"/>
<path d="M3175 3698 c-58 -32 -71 -102 -32 -178 24 -49 76 -90 114 -90 34 0
86 26 101 51 62 99 -83 272 -183 217z m111 -82 c42 -42 44 -76 8 -105 -15 -12
-34 -21 -43 -21 -9 0 0 8 19 18 48 24 52 61 11 102 -39 39 -66 38 -91 -2 -11
-18 -20 -28 -20 -22 0 21 41 64 62 64 11 0 35 -15 54 -34z m-71 -96 c10 -11
16 -20 13 -20 -3 0 -13 9 -23 20 -10 11 -16 20 -13 20 3 0 13 -9 23 -20z"/>
<path d="M3755 3643 c-55 -13 -95 -80 -95 -157 0 -47 4 -61 29 -88 24 -27 36
-33 71 -33 37 0 47 6 75 38 36 42 50 91 39 140 -11 54 -32 84 -65 96 -18 6
-32 10 -33 10 -1 -1 -10 -3 -21 -6z m59 -85 c25 -35 20 -76 -13 -109 -16 -16
-34 -29 -39 -29 -20 0 -51 36 -57 65 -5 28 -4 27 8 -5 17 -45 66 -55 91 -18
31 43 14 108 -29 108 -24 0 -55 -23 -55 -42 0 -6 -3 -8 -6 -5 -4 4 1 18 10 32
21 33 68 34 90 3z"/>
<path d="M3409 3440 c-51 -38 -63 -68 -71 -180 -5 -58 -11 -132 -14 -165 -7
-69 10 -111 56 -138 36 -22 113 -22 130 -1 28 33 95 62 159 67 77 6 110 28
131 85 22 65 1 114 -74 171 -32 24 -74 66 -93 92 -19 27 -49 57 -67 69 -44 27
-121 27 -157 0z m187 -123 c28 -28 65 -64 83 -78 23 -20 31 -35 31 -61 0 -36
-23 -78 -43 -78 -8 0 -9 2 -1 8 16 11 34 48 34 71 0 13 -32 53 -80 101 -68 68
-85 80 -113 80 -37 0 -74 -29 -81 -63 -7 -30 -17 -135 -19 -176 -1 -42 31 -71
77 -71 25 -1 28 -2 14 -11 -28 -16 -82 13 -98 51 -11 26 -11 41 -2 76 7 25 12
66 12 92 1 54 17 89 51 108 40 23 79 9 135 -49z m51 -223 c-3 -3 -12 -4 -19
-1 -8 3 -5 6 6 6 11 1 17 -2 13 -5z"/>
<path d="M3074 3400 c-55 -22 -70 -97 -31 -164 31 -55 67 -79 129 -84 43 -3
58 0 81 18 23 18 27 29 27 69 0 61 -40 119 -102 150 -47 22 -70 25 -104 11z
m113 -76 l28 -26 -29 21 c-54 39 -102 19 -94 -38 2 -17 1 -28 -4 -25 -12 8
-10 68 4 82 20 20 65 14 95 -14z m38 -84 c-10 -32 -49 -43 -90 -25 -19 7 -35
16 -35 19 0 3 16 -2 36 -10 32 -14 38 -13 60 1 13 8 24 23 24 32 0 9 3 14 6
10 3 -3 3 -15 -1 -27z"/>
<path d="M2545 3150 c-771 -33 -937 -49 -1038 -99 -29 -14 -45 -17 -58 -11
-56 30 -182 -4 -238 -64 -24 -25 -24 -26 -12 -123 6 -54 22 -242 36 -418 14
-176 28 -345 31 -375 7 -70 47 -195 77 -239 12 -19 38 -61 58 -95 58 -100 57
-99 364 -89 143 4 375 8 515 8 223 -1 261 -3 300 -19 25 -10 64 -21 87 -23 37
-4 46 -1 72 24 39 39 51 86 58 218 4 92 10 124 38 195 69 180 108 382 125 650
19 277 0 391 -71 443 -34 24 -94 27 -344 17z m36 -272 c14 -26 6 -246 -10
-277 -11 -19 -21 -21 -99 -21 -48 0 -103 -3 -123 -6 -32 -5 -37 -10 -42 -39
-23 -139 -202 -323 -343 -353 l-39 -8 3 -90 c1 -49 5 -108 8 -131 l5 -41 -189
-4 c-143 -2 -193 -6 -206 -17 -26 -22 -28 -9 -7 60 11 35 25 114 31 174 6 61
13 125 16 143 l6 32 74 0 74 0 0 33 c0 47 53 149 100 191 l40 36 -37 0 c-21
-1 -72 -14 -113 -30 -84 -34 -125 -38 -134 -14 -3 9 -6 48 -6 87 0 40 -5 107
-12 149 -15 98 -8 108 72 108 32 0 92 7 135 16 42 9 87 13 101 10 l24 -6 0
-150 0 -149 45 20 c57 25 166 49 226 49 57 0 59 5 59 138 l0 92 93 1 c50 1
103 5 117 9 14 4 46 8 72 9 39 1 49 -3 59 -21z m-21 -553 c7 -8 16 -68 21
-137 5 -67 16 -144 24 -172 8 -27 15 -53 15 -58 0 -4 -55 -8 -122 -8 -68 0
-176 -7 -241 -17 -64 -9 -120 -13 -124 -9 -4 3 1 39 10 79 10 39 17 90 17 112
0 99 47 171 133 204 67 26 247 30 267 6z"/>
<path d="M2334 2773 c-14 -15 -32 -53 -42 -84 l-17 -57 -115 -4 c-111 -3 -120
-5 -192 -40 -152 -76 -228 -195 -204 -323 6 -30 14 -39 44 -52 20 -8 65 -15
101 -15 148 1 303 134 371 316 l26 71 69 6 c87 8 104 15 112 47 5 21 0 31 -24
51 -17 14 -36 42 -42 63 -11 33 -27 48 -52 48 -6 0 -21 -12 -35 -27z m-373
-339 c17 -15 19 -15 34 0 19 19 37 20 53 4 20 -20 14 -48 -12 -60 -21 -9 -24
-16 -19 -39 7 -38 -13 -38 -22 0 -3 16 -22 47 -41 70 -34 40 -29 58 7 25z
m-63 -96 c17 -17 15 -43 -4 -59 -31 -26 -70 25 -44 56 15 18 32 19 48 3z"/>
<path d="M2000 2410 c-10 -19 -9 -21 12 -18 13 2 23 9 23 17 0 23 -23 24 -35
1z"/>
<path d="M3985 2410 c-38 -4 -137 -11 -219 -15 l-148 -8 6 -36 c3 -20 8 -92
12 -161 6 -130 0 -177 -45 -332 -11 -38 -16 -68 -11 -68 15 0 98 89 106 113 4
12 15 33 25 46 11 13 19 32 19 41 0 32 24 38 171 42 l145 3 -2 -125 -3 -125
-46 -5 c-58 -8 -85 -30 -34 -30 20 0 56 -7 81 -16 26 -8 61 -14 80 -12 l33 3
6 145 c4 80 7 229 8 332 1 237 9 228 -184 208z m60 -210 c0 -115 -2 -134 -15
-131 -8 2 -39 8 -67 13 -47 9 -53 13 -53 34 0 26 4 29 63 39 27 4 37 11 37 24
0 22 -19 31 -61 31 -26 0 -29 3 -29 31 0 43 -17 69 -44 69 -27 0 -36 -17 -36
-66 0 -31 -3 -34 -30 -34 -25 0 -30 -4 -30 -24 0 -21 6 -25 33 -28 28 -3 32
-7 35 -35 3 -27 0 -33 -16 -33 -11 0 -33 -3 -49 -6 l-30 -6 -7 112 c-5 78 -4
116 4 125 12 15 89 22 220 21 l75 -1 0 -135z"/>
<path d="M4984 2371 c-80 -4 -127 -11 -138 -20 -13 -11 -16 -33 -16 -116 0
-139 16 -153 155 -135 43 5 80 8 83 5 2 -2 6 -87 8 -187 2 -101 5 -201 6 -222
1 -24 -3 -41 -10 -44 -24 -8 -11 -20 32 -31 31 -7 53 -8 71 -1 14 6 47 10 73
10 26 0 67 5 91 11 41 9 50 7 101 -20 37 -20 78 -32 122 -37 64 -6 68 -5 126
30 69 42 93 45 107 14 15 -33 52 -48 120 -48 63 0 85 11 85 41 0 18 -19 29
-50 29 -11 0 -41 5 -69 11 l-49 10 5 54 c4 36 2 60 -6 69 -7 8 -10 20 -6 26
12 20 -7 110 -28 137 -44 52 -93 94 -117 99 -14 3 -35 10 -48 15 -34 13 -84
11 -133 -6 -108 -38 -167 -106 -174 -201 -5 -63 12 -143 33 -151 6 -3 12 -11
12 -18 0 -22 -151 -47 -163 -27 -3 4 -1 160 3 347 5 219 4 344 -3 353 -10 13
-20 13 -223 3z m106 -76 c0 -24 -6 -37 -19 -45 -19 -10 -143 -15 -152 -6 -3 3
-3 23 -1 45 l4 41 84 0 84 0 0 -35z m-22 -97 c6 -8 6 -22 1 -35 -8 -21 -15
-23 -78 -23 -74 0 -83 4 -74 38 4 17 14 22 57 25 28 2 58 4 67 5 9 1 21 -4 27
-10z m515 -185 c-39 -95 -35 -252 11 -345 13 -27 19 -48 15 -48 -4 0 -22 28
-39 63 -40 82 -49 174 -26 271 16 68 30 96 47 96 4 0 1 -17 -8 -37z m-69 -38
c-20 -86 -18 -181 6 -259 11 -36 25 -68 30 -71 6 -3 10 -11 10 -17 0 -26 -41
29 -61 81 -18 48 -20 71 -16 156 3 69 10 112 22 137 10 21 20 37 21 35 1 -1
-4 -29 -12 -62z m143 49 c-3 -3 -12 -4 -19 -1 -8 3 -5 6 6 6 11 1 17 -2 13 -5z
m-199 -60 c-14 -51 -14 -188 0 -238 6 -22 10 -42 7 -44 -2 -2 -11 22 -21 54
-19 66 -16 201 6 247 18 37 22 29 8 -19z m261 22 c-2 -2 -30 -7 -63 -11 -41
-5 -56 -3 -52 4 4 6 32 11 63 11 31 0 54 -2 52 -4z m54 -58 c10 -5 17 -11 15
-12 -1 -1 -48 0 -103 4 -93 5 -100 12 -25 23 31 5 89 -3 113 -15z m-373 2 c0
-5 -7 -10 -16 -10 -8 0 -12 5 -9 10 3 6 10 10 16 10 5 0 9 -4 9 -10z m-10 -49
c0 -5 -7 -12 -16 -15 -14 -5 -15 -4 -4 9 14 17 20 19 20 6z m397 -14 c24 -23
14 -27 -37 -16 -25 6 -71 8 -102 5 -46 -4 -58 -3 -58 8 0 22 19 26 103 22 56
-2 83 -7 94 -19z m-405 -65 c-21 -16 -30 2 -11 24 10 12 14 12 20 2 6 -8 2
-18 -9 -26z m381 12 c15 -3 27 -12 27 -20 0 -10 -6 -11 -26 -4 -14 6 -59 10
-100 10 -77 0 -102 16 -36 23 37 4 83 1 135 -9z m-363 -53 c0 -12 -20 -25 -27
-18 -7 7 6 27 18 27 5 0 9 -4 9 -9z m245 -11 c-10 -11 -23 -20 -28 -20 -6 0
-2 9 8 20 10 11 23 20 28 20 6 0 2 -9 -8 -20z m75 11 c0 -12 -90 -94 -96 -88
-6 6 77 95 89 96 4 1 7 -3 7 -8z m35 -40 c-15 -30 -73 -81 -92 -81 -10 0 88
108 100 109 4 1 1 -12 -8 -28z m45 -16 c-6 -15 -13 -25 -16 -23 -2 3 1 17 7
32 16 34 23 27 9 -9z m-376 -11 c10 -25 -1 -29 -14 -5 -6 12 -7 21 -1 21 5 0
12 -7 15 -16z m491 -73 l50 -9 -45 0 c-25 -1 -58 5 -75 13 -26 12 -27 14 -5 9
14 -3 48 -9 75 -13z"/>
<path d="M4466 2363 c-65 -4 -68 -5 -61 -26 4 -12 11 -130 15 -262 13 -358 32
-466 77 -439 34 21 51 116 52 285 l1 156 74 6 c106 8 113 13 120 94 4 38 10
94 15 126 4 31 5 59 3 62 -6 5 -175 4 -296 -2z m204 -73 l0 -51 -66 3 -66 3
-13 38 c-10 29 -10 39 -2 42 21 7 61 12 105 14 l42 1 0 -50z m2 -120 c6 -40
-7 -50 -64 -50 -40 0 -50 4 -64 25 -25 38 -5 55 66 55 56 0 58 -1 62 -30z"/>
<path d="M3324 2340 c-31 -12 -38 -40 -17 -61 30 -30 152 -89 183 -89 26 0 60
22 60 38 0 3 -26 32 -57 64 -54 54 -60 58 -103 57 -25 0 -54 -4 -66 -9z"/>
<path d="M3317 2153 c-32 -5 -47 -31 -26 -44 8 -5 40 -9 72 -9 68 0 71 -8 21
-70 l-36 -45 41 -18 c25 -11 41 -24 41 -35 0 -10 -25 -68 -55 -129 -30 -62
-55 -117 -55 -124 0 -8 12 -9 38 -4 64 12 125 7 192 -16 59 -20 90 -22 331
-26 224 -4 271 -2 302 11 61 25 45 36 -55 36 -182 1 -392 19 -503 44 -60 14
-127 28 -147 31 -51 8 -48 27 7 65 45 31 67 62 78 111 8 32 -2 42 -65 59 -27
7 -48 16 -48 21 0 15 30 37 59 44 34 7 86 68 77 90 -4 12 -28 15 -123 14 -65
-1 -131 -4 -146 -6z"/>
<path d="M4663 1982 c-17 -3 -23 -10 -23 -30 0 -57 32 -218 45 -232 13 -12 17
-11 35 8 14 15 29 20 48 17 65 -10 168 -14 179 -7 17 10 33 99 33 177 0 76 0
76 -135 64 -53 -5 -111 -6 -128 -1 -18 4 -42 6 -54 4z m227 -71 c0 -28 -1 -29
-62 -33 -66 -6 -88 3 -88 33 0 19 21 24 108 27 40 2 42 1 42 -27z m-2 -99 l3
-33 -73 3 c-71 3 -73 4 -76 30 -3 23 1 27 30 31 18 2 51 4 73 3 38 -1 40 -3
43 -34z"/>
<path d="M3750 1955 c-10 -12 -10 -28 1 -79 l12 -65 52 -6 c28 -4 71 -3 96 2
38 8 44 12 41 32 -2 12 1 28 6 34 20 25 31 74 19 86 -18 18 -212 15 -227 -4z
m160 -65 c0 -28 -2 -30 -39 -30 -46 0 -52 6 -40 38 6 17 16 22 44 22 32 0 35
-2 35 -30z"/>
</g>
</svg>
